<?xml version="1.0" encoding="UTF-8"?> <svg xmlns="http://www.w3.org/2000/svg" width="138" height="89" viewBox="0 0 138 89" fill="none"><g clip-path="url(#clip0_129_116)"><path d="M101.452 53.3906C99.3901 62.706 92.9059 72.229 77.1959 72.229C60.6078 72.229 51.5366 60.6445 51.5366 43.658C51.5366 27.565 61.1509 14.3557 77.9175 14.3557C95.703 14.3557 101.01 27.0531 101.452 33.6014H88.3089C87.2186 28.7213 84.3303 24.9915 77.6578 24.9915C69.7007 24.9915 65.1929 31.8818 65.1929 43.2153C65.1929 55.2623 69.7998 61.6664 77.4953 61.6664C83.3273 61.6664 86.5644 58.3655 88.2355 53.3886H101.452V53.3906Z" fill="#1968B3"></path><path d="M13.2162 54.5883C14.5226 59.5416 18.4258 62.3779 24.7554 62.3779C31.2574 62.3779 33.7016 59.8578 33.7016 55.9423C33.7016 51.8469 31.2633 50.1174 22.434 47.9669C5.11441 43.7272 2.03784 38.4024 2.03784 30.6978C2.03784 22.671 7.80047 14.3557 23.6988 14.3557C39.6704 14.3557 45.4212 23.2106 45.9802 30.7729H33.1743C32.5836 28.2153 30.7618 23.9795 23.1041 23.9795C17.1214 23.9795 15.256 26.719 15.256 29.5909C15.256 32.8028 17.165 34.3722 26.5593 36.5761C44.4954 40.7624 47.3638 46.8403 47.3638 54.9856C47.3638 64.3209 40.1343 72.231 24.2697 72.231C8.26434 72.229 1.28455 64.4157 0 54.5883H13.2162Z" fill="#1968B3"></path><path d="M138 25.9047V15.6484H126.675V15.6345H113.262V15.6484H104.362V25.9047H113.262V56.8535C113.262 66.3666 116.918 71.6934 127 71.6934C129.946 71.6934 133.821 71.6281 136.636 70.6478V61.2394C135.365 61.4746 133.704 61.5102 132.691 61.5102C127.967 61.5102 126.675 59.4981 126.675 54.9085V25.9047H138Z" fill="#1968B3"></path><path d="M113.233 0V13.312C113.241 13.312 113.249 13.3101 113.257 13.3101C120.629 13.3022 126.6 7.3488 126.608 0H113.233Z" fill="#1968B3"></path><path d="M27.9747 82.5327C26.7694 82.5327 26.4066 83.5171 26.4066 84.5745V87.2508H25.917V82.1829H26.4066V83.0901C26.5632 82.5802 27.152 82.0564 27.9747 82.0564V82.5327Z" fill="#1968B3"></path><path d="M31.1048 82.0544C32.5638 82.0544 33.4955 83.1396 33.4955 84.5904V84.7979H29.1641C29.1641 86.1459 30.0264 86.9286 31.2416 86.9286C32.1832 86.9286 32.7006 86.4661 32.9959 86.057L33.3191 86.2843C32.986 86.8199 32.3398 87.3773 31.2416 87.3773C29.7409 87.3773 28.6526 86.3119 28.6526 84.7287C28.6526 83.0704 29.8103 82.0544 31.1048 82.0544ZM32.986 84.371C32.9285 83.0961 32.0543 82.5031 31.0949 82.5031C30.1731 82.5031 29.291 83.1277 29.1938 84.371H32.986Z" fill="#1968B3"></path><path d="M36.3837 84.0349C37.0795 84.0349 37.6187 84.3275 37.8447 84.5824V83.8096C37.8447 82.9597 37.2857 82.5011 36.4531 82.5011C35.7771 82.5011 35.2379 82.7561 34.8851 82.9716L34.6789 82.5901C34.9545 82.4122 35.6205 82.0544 36.4828 82.0544C37.7476 82.0544 38.3343 82.7838 38.3343 83.8412V87.2508H37.9339L37.8447 86.7725C37.5692 87.0848 37.1192 87.3793 36.3837 87.3793C35.228 87.3793 34.4331 86.6381 34.4331 85.6992C34.4331 84.7426 35.2578 84.0349 36.3837 84.0349ZM36.4135 86.9306C37.2777 86.9306 37.8724 86.4009 37.8724 85.6992C37.8724 84.9738 37.2956 84.4876 36.4035 84.4876C35.5016 84.4876 34.9346 85.0173 34.9346 85.6992C34.9346 86.3712 35.5016 86.9306 36.4135 86.9306Z" fill="#1968B3"></path><path d="M44.3963 87.2507H43.9067V86.3119C43.7877 86.5056 43.2406 87.3772 42.0155 87.3772C40.5645 87.3772 39.5356 86.2723 39.5356 84.7287C39.5356 83.1652 40.5347 82.0524 41.966 82.0524C43.1217 82.0524 43.7402 82.8331 43.9067 83.1454V80.1846H44.3963V87.2507ZM41.9759 82.5149C40.8678 82.5149 40.0451 83.434 40.0451 84.7306C40.0451 86.0589 40.9074 86.9187 41.9957 86.9187C43.1812 86.9187 43.9245 85.9225 43.9245 84.7306C43.9245 83.3253 43.0345 82.5149 41.9759 82.5149Z" fill="#1968B3"></path><path d="M46.785 89L47.5304 87.2389L45.4033 82.1829H45.9425L47.7861 86.6439L49.5682 82.1829H50.0975L47.2964 89H46.785Z" fill="#1968B3"></path><path d="M54.0066 82.6177H53.4199V82.1809H54.0066V81.8765C54.0066 80.6175 54.7123 80.2241 55.4577 80.2241C55.5865 80.2241 55.7213 80.2439 55.7213 80.2439V80.6847C55.7213 80.6847 55.5965 80.6649 55.4775 80.6649C54.8511 80.6649 54.4983 81.0246 54.4983 81.8686V82.1809H55.6837V82.6177H54.4983V87.2507H54.0066V82.6177Z" fill="#1968B3"></path><path d="M58.9605 82.0544C60.4611 82.0544 61.5673 83.2048 61.5673 84.7109C61.5673 86.2348 60.4413 87.3793 58.9506 87.3793C57.45 87.3793 56.3438 86.2566 56.3438 84.7109C56.3438 83.185 57.4599 82.0544 58.9605 82.0544ZM58.9506 86.9187C60.1856 86.9187 61.0558 85.9799 61.0558 84.7109C61.0558 83.4716 60.1955 82.515 58.9506 82.515C57.7156 82.515 56.8533 83.4716 56.8533 84.7109C56.8533 85.9799 57.7156 86.9187 58.9506 86.9187Z" fill="#1968B3"></path><path d="M64.9253 82.5327C63.7201 82.5327 63.3573 83.5171 63.3573 84.5745V87.2508H62.8677V82.1829H63.3573V83.0901C63.5139 82.5802 64.1027 82.0564 64.9253 82.0564V82.5327Z" fill="#1968B3"></path><path d="M68.9693 81.1235H69.4589V82.181H70.6562V82.6178H69.4609V85.4739C69.4609 86.5788 69.7166 86.8595 70.4818 86.8595C70.5869 86.8595 70.7058 86.8476 70.7058 86.8476V87.2884C70.7058 87.2884 70.4699 87.3082 70.2836 87.3082C69.4807 87.3082 68.9713 86.8101 68.9713 85.7842V82.6178H68.3448V82.181H68.9713V81.1235H68.9693Z" fill="#1968B3"></path><path d="M74.1094 82.0544C75.612 82.0544 76.7162 83.2048 76.7162 84.7109C76.7162 86.2348 75.5922 87.3793 74.1015 87.3793C72.5989 87.3793 71.4948 86.2566 71.4948 84.7109C71.4928 83.185 72.6108 82.0544 74.1094 82.0544ZM74.1015 86.9187C75.3365 86.9187 76.2068 85.9799 76.2068 84.7109C76.2068 83.4716 75.3444 82.515 74.1015 82.515C72.8665 82.515 72.0022 83.4716 72.0022 84.7109C72.0022 85.9799 72.8665 86.9187 74.1015 86.9187Z" fill="#1968B3"></path><path d="M85.0539 87.2508H84.5623V84.193C84.5623 83.0704 84.1222 82.5031 83.2421 82.5031C82.4174 82.5031 81.7831 83.0901 81.7831 84.2009V87.2508H81.2934V83.9974C81.2934 83.0585 80.7602 82.5031 79.9474 82.5031C79.1723 82.5031 78.5063 83.1672 78.5063 84.1634V87.2527H78.0186V82.1849H78.5063V82.9834C78.7124 82.5051 79.2913 82.0564 80.0049 82.0564C80.8197 82.0564 81.3866 82.4655 81.6166 83.0723C81.9099 82.3964 82.5562 82.0564 83.2995 82.0564C84.4295 82.0564 85.0559 82.8668 85.0559 83.9914V87.2508H85.0539Z" fill="#1968B3"></path><path d="M88.9334 82.0544C90.436 82.0544 91.5401 83.2048 91.5401 84.7109C91.5401 86.2348 90.4161 87.3793 88.9254 87.3793C87.4228 87.3793 86.3187 86.2566 86.3187 84.7109C86.3187 83.185 87.4347 82.0544 88.9334 82.0544ZM88.9254 86.9187C90.1604 86.9187 91.0307 85.9799 91.0307 84.7109C91.0307 83.4716 90.1684 82.515 88.9254 82.515C87.6904 82.515 86.8261 83.4716 86.8261 84.7109C86.8281 85.9799 87.6904 86.9187 88.9254 86.9187Z" fill="#1968B3"></path><path d="M94.9002 82.5327C93.6969 82.5327 93.3321 83.5171 93.3321 84.5745V87.2508H92.8445V82.1829H93.3321V83.0901C93.4907 82.5802 94.0795 82.0564 94.9002 82.0564V82.5327Z" fill="#1968B3"></path><path d="M98.1987 82.5327C96.9935 82.5327 96.6307 83.5171 96.6307 84.5745V87.2508H96.1391V82.1829H96.6307V83.0901C96.7853 82.5802 97.3741 82.0564 98.1987 82.0564V82.5327Z" fill="#1968B3"></path><path d="M101.493 82.0544C102.996 82.0544 104.1 83.2048 104.1 84.7109C104.1 86.2348 102.976 87.3793 101.485 87.3793C99.9828 87.3793 98.8787 86.2566 98.8787 84.7109C98.8787 83.185 99.9947 82.0544 101.493 82.0544ZM101.485 86.9187C102.72 86.9187 103.591 85.9799 103.591 84.7109C103.591 83.4716 102.728 82.515 101.485 82.515C100.25 82.515 99.3861 83.4716 99.3861 84.7109C99.3881 85.9799 100.25 86.9187 101.485 86.9187Z" fill="#1968B3"></path><path d="M108.638 82.8351L107.07 87.2507H106.548L104.734 82.1829H105.266L106.814 86.6459C106.814 86.6459 106.826 86.6182 108.382 82.1829H108.893C110.45 86.6182 110.461 86.6459 110.461 86.6459L112.01 82.1829H112.537L110.727 87.2507H110.206L108.638 82.8351Z" fill="#1968B3"></path></g><defs><clipPath id="clip0_129_116"><rect width="138" height="89" fill="white"></rect></clipPath></defs></svg> 